<?xml version="1.0" encoding="iso-8859-1"?>
<!-- Generator: Adobe Illustrator 16.0.0, SVG Export Plug-In . SVG Version: 6.00 Build 0)  -->
<!DOCTYPE svg PUBLIC "-//W3C//DTD SVG 1.1//EN" "http://www.w3.org/Graphics/SVG/1.1/DTD/svg11.dtd">
<svg xmlns="http://www.w3.org/2000/svg" xmlns:xlink="http://www.w3.org/1999/xlink" version="1.1" id="Capa_1" x="0px" y="0px" width="512px" height="512px" viewBox="0 0 792 791.999" style="enable-background:new 0 0 792 791.999;" xml:space="preserve">
<g>
	<g>
		<g>
			<path d="M336.557,791.999c0,0,96.44-49.966,127.411-186.383c-8.271-0.815-12.369,0.12-12.369,0.12     s-28.761,110.573-100.59,163.299C345.025,773.451,336.557,791.999,336.557,791.999z" fill="#ffffff"/>
			<path d="M462.871,610.285c0,0,79.364-63.435,92.438-221.64c-18.016,28.623-24.504,36.836-24.504,36.836     s27.387-75.092,18.766-159.237c-8.629-84.155-78.229-208.877-204.277-265.377c17.295,20.322,19.754,39.441,19.754,39.441     S345.934-2.249,282.322,0.093c-18.609,1.236-32.789,15.812-32.789,15.812s7.253,12.905-9.889,18.151     c-14.641,23.279,29.899,84.028,29.899,84.028s75.077,86.014,90.983,138.183c15.915,52.175,16.75,66.536,16.75,66.536     s39.193,23.023,46.014,53.008c-19.681-18.969-33.15-19.554-33.15-19.554s27.48,92.399,17.338,142.008     c-10.142,49.606,40.45,129.862,40.45,129.862L462.871,610.285z" fill="#ffffff"/>
		</g>
		<path d="M297.301,60.027c0,0,240.453,168.471,166.623,490.886C567.833,190.119,297.301,60.027,297.301,60.027z" fill="#ffffff"/>
	</g>
</g>
<g>
</g>
<g>
</g>
<g>
</g>
<g>
</g>
<g>
</g>
<g>
</g>
<g>
</g>
<g>
</g>
<g>
</g>
<g>
</g>
<g>
</g>
<g>
</g>
<g>
</g>
<g>
</g>
<g>
</g>
</svg>
